<?xml version="1.0" encoding="UTF-8"?>
<svg preserveAspectRatio="none" version="1.1" viewBox="0 0 1440 560" xmlns="http://www.w3.org/2000/svg">
<g mask="url(#a)">
<rect width="1440" height="560" fill="#fff"/>
<path d="m0 344.12c62.977-8.307 118.2-44.416 165.01-87.352 41.636-38.187 52.828-96.26 85.464-142.38 42.711-60.353 135.23-95.95 135.52-169.89 0.284-71.75-81.603-113.88-134.2-162.68-47.236-43.824-93.625-92.125-156.35-106.88-61.247-14.406-124.94 2.688-182.94 27.071-53.592 22.529-96.331 61.78-133.92 106.13-37.242 43.94-73.177 91.312-81.705 148.28-8.551 57.122 17.57 111.02 34.628 166.2 19.673 63.643 21.529 139.32 72.914 181.71 52.38 43.212 128.26 48.669 195.58 39.789" fill="#88afd6"/>
<path d="m1440 1087.1c112.38 21.351 236.47 52.018 336.21-3.994 100.66-56.53 125.23-185.91 181.49-286.73 61.865-110.87 171.02-207.78 165.21-334.61-5.892-128.66-110.38-227.49-195.38-324.26-84.49-96.183-172.46-196.2-294.83-233.8-123.05-37.811-256.36-16.636-377.38 27.243-116.2 42.131-206.76 126.48-292.4 215.61-89.803 93.471-218.15 184.12-216.16 313.72 2.013 131.33 140.98 212.85 225.77 313.16 62.173 73.556 124.46 142.15 204.44 195.81 81.433 54.637 166.7 99.54 263.04 117.84" fill="#88afd6"/>
</g>
<defs>
<mask id="a">
<rect width="1440" height="560" fill="#fff"/>
</mask>
</defs>
</svg>