<?xml version="1.0" encoding="UTF-8"?>
<svg version="1.1" viewBox="0 0 152.28 152.28" xml:space="preserve" xmlns="http://www.w3.org/2000/svg" xmlns:cc="http://creativecommons.org/ns#" xmlns:dc="http://purl.org/dc/elements/1.1/" xmlns:rdf="http://www.w3.org/1999/02/22-rdf-syntax-ns#"><metadata><rdf:RDF><cc:Work rdf:about=""><dc:format>image/svg+xml</dc:format><dc:type rdf:resource="http://purl.org/dc/dcmitype/StillImage"/></cc:Work></rdf:RDF></metadata><defs><clipPath id="a"><path d="M 0,114.213 H 114.213 V 0 H 0 Z"/></clipPath></defs><g transform="matrix(1.3333 0 0 -1.3333 0 152.28)"><g clip-path="url(#a)"><g transform="translate(114.21 57.106)"><path d="m0 0c0-31.539-25.567-57.106-57.106-57.106-31.54 0-57.107 25.567-57.107 57.106s25.567 57.106 57.107 57.106c31.539 0 57.106-25.567 57.106-57.106" fill="#4b5d8c"/></g><g transform="translate(48.21 27.133)"><path d="m0 0v31.345h-5.321v9.312h5.321v1.58c0 4.905 1.497 10.309 5.155 13.636 3.16 2.992 7.567 4.074 11.225 4.074 2.828 0 4.989-0.333 6.734-0.832l-0.499-9.727c-1.08 0.332-2.411 0.581-4.074 0.581-4.156 0-5.901-3.242-5.901-7.234v-2.078h8.146v-9.312h-8.064v-31.345z" fill="#fff"/></g></g></g></svg>