<?xml version="1.0" encoding="UTF-8"?>
<svg version="1.1" viewBox="0 0 152.28 152.28" xml:space="preserve" xmlns="http://www.w3.org/2000/svg" xmlns:cc="http://creativecommons.org/ns#" xmlns:dc="http://purl.org/dc/elements/1.1/" xmlns:rdf="http://www.w3.org/1999/02/22-rdf-syntax-ns#"><metadata><rdf:RDF><cc:Work rdf:about=""><dc:format>image/svg+xml</dc:format><dc:type rdf:resource="http://purl.org/dc/dcmitype/StillImage"/></cc:Work></rdf:RDF></metadata><defs><clipPath id="a"><path d="M 0,114.213 H 114.213 V 0 H 0 Z"/></clipPath></defs><g transform="matrix(1.3333 0 0 -1.3333 0 152.28)"><g clip-path="url(#a)"><g transform="translate(114.21 57.106)"><path d="m0 0c0-31.539-25.567-57.105-57.106-57.105-31.54 0-57.107 25.566-57.107 57.105s25.567 57.107 57.107 57.107c31.539 0 57.106-25.568 57.106-57.107" fill="#4b5d8c"/></g><g transform="translate(35.236 76.498)"><path d="m0 0c4.375 0 7.099 2.902 7.099 6.527-0.08 3.703-2.724 6.524-7.019 6.524-4.291 0-7.099-2.821-7.099-6.524 0-3.625 2.723-6.527 6.934-6.527zm6.272-5.152h-12.548v-37.758h12.548z" fill="#fff" fill-rule="evenodd"/></g><g transform="translate(48.451 33.588)"><path d="m0 0h12.552v21.086c0 1.127 0.081 2.256 0.414 3.06 0.905 2.256 2.972 4.59 6.436 4.59 4.544 0 6.361-3.463 6.361-8.537v-20.199h12.547v21.65c0 11.596-6.191 16.993-14.448 16.993-6.769 0-9.743-3.788-11.393-6.36h0.083v5.475h-12.552c0.166-3.541 0-37.758 0-37.758" fill="#fff" fill-rule="evenodd"/></g></g></g></svg>