<?xml version="1.0" encoding="UTF-8"?>
<svg version="1.1" viewBox="0 0 152.28 152.28" xml:space="preserve" xmlns="http://www.w3.org/2000/svg" xmlns:cc="http://creativecommons.org/ns#" xmlns:dc="http://purl.org/dc/elements/1.1/" xmlns:rdf="http://www.w3.org/1999/02/22-rdf-syntax-ns#"><metadata><rdf:RDF><cc:Work rdf:about=""><dc:format>image/svg+xml</dc:format><dc:type rdf:resource="http://purl.org/dc/dcmitype/StillImage"/></cc:Work></rdf:RDF></metadata><defs><clipPath id="a"><path d="M 0,114.213 H 114.213 V 0 H 0 Z"/></clipPath></defs><g transform="matrix(1.3333 0 0 -1.3333 0 152.28)"><g clip-path="url(#a)"><g transform="translate(114.21 57.106)"><path d="m0 0c0-31.539-25.567-57.105-57.106-57.105-31.54 0-57.107 25.566-57.107 57.105s25.567 57.107 57.107 57.107c31.539 0 57.106-25.568 57.106-57.107" fill="#4b5d8c"/></g><g transform="translate(62.615 39.506)"><path d="m0 0c-4.115 0.318-8.478 3.299-9.068 4.311-7e-3 0.013-0.026 0.015-0.038 0.023-1.781-9.342-7.415-29.74-13.86-34.418-1.992 14.119 6.377 36.166 8.658 47.424-3.888 6.547 0.469 19.723 8.67 16.476 10.094-3.992-8.739-24.339 3.905-26.88 13.199-2.653 18.587 22.904 10.402 31.214-11.827 12.002-34.428 0.274-31.648-16.906 0.677-4.201 5.017-5.476 1.734-11.273-0.012 4e-3 -0.023 6e-3 -0.033 8e-3 -6.994 1.878-9.803 9.099-9.505 15.599 0.597 13.024 11.707 22.151 22.978 23.412 14.255 1.596 27.635-5.234 29.483-18.642 2.078-15.135-6.436-31.526-21.678-30.348" fill="#fff"/></g></g></g></svg>