<?xml version="1.0" encoding="UTF-8"?>
<svg version="1.1" viewBox="0 0 350.67 212.27" xml:space="preserve" xmlns="http://www.w3.org/2000/svg" xmlns:cc="http://creativecommons.org/ns#" xmlns:dc="http://purl.org/dc/elements/1.1/" xmlns:rdf="http://www.w3.org/1999/02/22-rdf-syntax-ns#"><metadata><rdf:RDF><cc:Work rdf:about=""><dc:format>image/svg+xml</dc:format><dc:type rdf:resource="http://purl.org/dc/dcmitype/StillImage"/></cc:Work></rdf:RDF></metadata><defs><clipPath id="i"><path d="m0 159.2h263v-159.2h-263z"/></clipPath><clipPath id="k"><path d="m50.566 88.047 5.755-2.418-3.722 17.521-8.46 0.018z"/></clipPath><linearGradient id="f" x2="1" gradientTransform="matrix(-9.2412 -1.4327 1.4327 -9.2412 54.851 95.114)" gradientUnits="userSpaceOnUse"><stop stop-color="#fff" stop-opacity="0" offset="0"/><stop stop-color="#fff" stop-opacity=".50182" offset="1"/></linearGradient><mask id="b" x="0" y="0" width="1" height="1" maskUnits="userSpaceOnUse"><path d="m-32768 32767h65535v-65535h-65535z" fill="url(#f)"/></mask><linearGradient id="e" x2="1" gradientTransform="matrix(-9.2412 -1.4327 1.4327 -9.2412 54.851 95.114)" gradientUnits="userSpaceOnUse"><stop stop-color="#524f63" offset="0"/><stop stop-color="#524f63" offset="1"/></linearGradient><clipPath id="j"><path d="m0 159.2h263v-159.2h-263z"/></clipPath><clipPath id="h"><path d="m118.93 65.471 131.45-9.606v9.606z"/></clipPath><linearGradient id="d" x2="1" gradientTransform="matrix(9.1874 42.404 42.404 -9.1874 183.72 56.346)" gradientUnits="userSpaceOnUse"><stop stop-color="#fff" stop-opacity="0" offset="0"/><stop stop-color="#fff" stop-opacity=".70001" offset="1"/></linearGradient><mask id="a" x="0" y="0" width="1" height="1" maskUnits="userSpaceOnUse"><path d="m-32768 32767h65535v-65535h-65535z" fill="url(#d)"/></mask><linearGradient id="c" x2="1" gradientTransform="matrix(9.1874 42.404 42.404 -9.1874 183.72 56.346)" gradientUnits="userSpaceOnUse"><stop stop-color="#636476" offset="0"/><stop stop-color="#4d4e64" offset="1"/></linearGradient><clipPath id="g"><path d="m0 159.2h263v-159.2h-263z"/></clipPath></defs><g transform="matrix(1.3333 0 0 -1.3333 0 212.27)"><g clip-path="url(#i)"><g transform="translate(1.3947 63.466)"><path d="m0 0s-4.477-19.774 2.612-33.206l7.089-13.432s1.865 33.579-9.701 46.638" fill="#00b59a"/></g><g transform="translate(1.6974 11.842)"><path d="m0 0c0.431-2.425 0.982-4.871 2.183-7.022 1.2-2.151 3.139-3.998 5.532-4.577 1.085-0.262 2.216-0.258 3.332-0.229 1.224 0.033 2.504 0.111 3.56 0.732 1.376 0.811 2.098 2.375 2.657 3.871 0.946 2.531 1.664 5.148 2.142 7.807 0.276 1.535 0.455 3.199-0.262 4.585-0.971 1.877-3.247 2.632-5.332 2.973-3.465 0.565-8.237 0.854-11.558-0.557-2.899-1.232-2.724-4.936-2.254-7.583" fill="#fff"/></g><g transform="translate(9.5578 16.763)"><path d="M 0,0 C 2.75,-0.161 5.73,0.261 7.461,1.193 7.808,1.38 8.116,1.619 7.952,1.848 7.758,2.117 7.026,2.229 6.388,2.294 3.082,2.636 -0.58,2.789 -3.815,2.241 -8.556,1.437 -2.517,0.147 0,0" fill="#524e64"/></g><g transform="translate(8.1105 68.316)"><path d="m0 0s-2.239-37.684 2.985-51.488c0 0 3.358 33.579-2.985 51.488" fill="#28a68f"/></g><g transform="translate(10.436 17.103)"><path d="m0 0h1.212c1.783 7.46 7.118 31.624 4.298 42.902 0 0-8.954-31.714-6.716-38.802 0.547-1.86 0.933-3.171 1.206-4.1" fill="#00b59a"/></g><g transform="translate(263 7.1081)"><path d="m0 0c0-3.717-54.21-6.729-121.08-6.729-66.871 0-121.08 3.012-121.08 6.729s54.21 6.729 121.08 6.729c66.87 0 121.08-3.012 121.08-6.729" fill="#dadcef"/></g><path d="m58.769 159.2h120.51v-67.092h-120.51z" fill="#37354c"/><path d="m61.526 94.868h114.99v61.578h-114.99z" fill="#fff"/><g transform="translate(44.411 108.15)"><path d="m0 0s-10.457-15.667-11.182-18.326c-0.725-2.66 5.165-8.143 7.824-10.319 2.659-2.175 2.608 1.248 2.608 1.248s-1.718 6.302-4.454 8.291c0.968 1.209 8.289 14.482 8.531 15.208 0.242 0.724-3.327 3.898-3.327 3.898" fill="#524f63"/></g><g transform="translate(39.67 79.086)"><path d="m0 0c-0.327 1.506 0.628 2.992 2.135 3.319 1.506 0.327 2.992-0.629 3.32-2.134 0.327-1.506-0.629-2.993-2.135-3.32-1.507-0.327-2.993 0.628-3.32 2.135" fill="#d98e9d"/></g><g transform="translate(43.925 36.813)"><path d="m0 0-2.254-6.254c-0.267-0.74-0.437-1.512-0.508-2.296l-2.016-22.307c-0.169-1.094 0.657-2.089 1.763-2.124l8.313 0.209s1.696 1.195-0.731 1.623c-2.425 0.428-6.735 2.272-6.735 2.272l9.615 29.347z" fill="#ffbcc6"/></g><g transform="translate(48.25 5.9079)"><path d="m0 0s2.516-0.568 2.922-1.137c0.406-0.568-0.243-1.217-0.243-1.217l-10.018 0.278-1.994 0.29 0.487 3.814s0.568-1.623 2.11-1.704 6.736-0.324 6.736-0.324" fill="#37354c"/></g><g transform="translate(55.528,34.614)"><path d="m0 0s1.596-10.337 3.545-12.793c1.948-2.457 6.854-13.709 6.854-13.709l10.262 0.065-0.276 1.222-7.435 1.61-0.985 5.612-8.801 26.716z" fill="#d98e9d"/></g><g transform="translate(59.936 13.401)"><path d="m0 0 7.714 3.03-3.581 22.591-8.231 30.322s-9.015 10.583-9.334 10.207c-0.319-0.375-2.905-8.466-2.905-8.466s-0.065-2.663 0.31-2.982c0.376-0.319 8.006-10.693 8.006-10.693l2.207-24.356z" fill="#444bcc"/></g><g transform="translate(43.699 121.82)"><path d="m0 0c-0.334 0.956-1.565 1.426-2.509 1.057-0.943-0.37-1.523-1.42-1.484-2.432 0.039-1.013 0.622-1.955 1.418-2.581 1.005-0.792 2.65-1.031 3.461-0.041 0.447 0.545 0.514 1.324 0.346 2.009-0.168 0.683-0.541 1.297-0.909 1.897" fill="#a0616b"/></g><g transform="translate(52.789 40.671)"><path d="m0 0 3.291 37.108-3.497-5.612-11.223-1.247-0.042-2.371c-0.027-1.476 0.533-2.901 1.554-3.966l2.301-2.395-1.766-25.645-2.755-8.266-1.102-16.253 6.887-0.551z" fill="#717bff"/></g><g transform="translate(40.652 69.05)"><path d="M 0,0 17.6,2.831 12.996,30.202 C 12.262,36.32 5.318,39.666 2.094,40.034 -0.266,40.304 0,0 0,0" fill="#b2aed6"/></g><g transform="translate(102.58 122.93)"><path d="m0 0-17.651-10.279-0.216 0.372 17.65 10.278z" fill="#37354c"/></g><g transform="translate(40.025 117.2)"><path d="m0 0-0.321 0.769c-1.692 4.043 0.232 8.733 4.275 10.424 4.042 1.692 8.733-0.232 10.424-4.274l1.26-3.013c0.085-0.202 0.144-0.409 0.181-0.616 1.052-3.861-0.896-7.997-4.687-9.583-4.123-1.725-8.864 0.22-10.589 4.343-0.268 0.639-0.446 1.295-0.543 1.95" fill="#ffbcc6"/></g><g transform="translate(83.942 114.7)"><path d="m0 0c0.068 1.54 1.371 2.733 2.911 2.665s2.734-1.372 2.665-2.911c-0.068-1.54-1.371-2.733-2.911-2.665-1.54 0.067-2.733 1.371-2.665 2.911" fill="#ffbcc6"/></g><g transform="translate(48.682 114.87)"><path d="m0 0c-0.146-0.752-0.427-10.537-0.427-10.537l-4.837 1.659 0.134 9.033z" fill="#ffbcc6"/></g></g><g clip-path="url(#k)"><g mask="url(#b)"><path d="m50.566 88.047 5.755-2.418-3.722 17.521-8.46 0.018z" fill="url(#e)"/></g></g><g clip-path="url(#j)"><g transform="translate(42.767 108.08)"><path d="m0 0s2.467 1.475 7.317-0.725c5.189-2.353 19.098-2.33 19.098-2.33l15.15 9.314 2.048-1.864-13.294-12.457s-15.05-0.49-17.755-1.04c-13.831-2.81-12.996 5.957-12.564 9.102" fill="#b2aed6"/></g><g transform="translate(53.285 126.38)"><path d="m0 0c-0.194-2.437-1.308-4.79-3.07-6.484-0.537 0.765-1.405 1.358-2.339 1.379-1.304 0.029-2.276-1.521-1.898-2.769 0.377-1.249 1.432-2.508 2.734-2.429-0.946-1.229-5.965-13.317-7.282-13.807-5.608-2.087-4.152 14.036-4.157 18.242-4e-3 3.673 2.404 7.234 5.815 8.597 3.411 1.365 7.667-0.065 10.197-2.729" fill="#37354c"/></g><g transform="translate(77.791 8.862)"><path d="m0 0-1.573-0.948-10.181-0.158-1.52 3.039s2.422-1.296 4.256-1.035c0.392 0.057 5.654 0 5.654 0l0.375-0.054s2.813-0.205 2.989-0.844" fill="#37354c"/></g><g transform="translate(181.84 12.598)"><path d="m0 0c-9e-3 0-0.017-2e-3 -0.024-2e-3 -0.395 1.801-2.001 3.155-3.919 3.155h-5.203v8.928h-0.792v19.148h-0.525v0.16h-0.776v-0.16h-1.237v-19.148h-0.634v-8.928h-4.649c-1.924 0-3.535-1.361-3.923-3.171-0.902-0.09-1.609-0.842-1.609-1.768 0-0.986 0.801-1.787 1.787-1.787s1.786 0.801 1.786 1.787c0 0.859-0.607 1.576-1.416 1.747 0.371 1.521 1.741 2.655 3.375 2.655h6.283v-2.643c-0.858-0.13-1.518-0.865-1.518-1.759 0-0.986 0.8-1.787 1.787-1.787 0.986 0 1.786 0.801 1.786 1.787 0 0.894-0.659 1.629-1.517 1.76v2.642h6.995c1.654 0 3.039-1.162 3.388-2.713-0.714-0.234-1.232-0.897-1.232-1.689 0-0.986 0.8-1.787 1.787-1.787 0.986 0 1.786 0.801 1.786 1.787s-0.8 1.786-1.786 1.786" fill="#524e64"/></g><g transform="translate(177.64 82.607)"><path d="m0 0h-9.567c-4.492 0-8.132-3.641-8.132-8.132v-20.527c0-4.491 3.64-8.132 8.132-8.132h9.567c4.491 0 8.132 3.641 8.132 8.132v20.527c0 4.491-3.641 8.132-8.132 8.132" fill="#524e64"/></g><g transform="translate(148.01 47.586)"><path d="m0 0h31.505c2.223 0 4.024-1.801 4.024-4.023 0-2.223-1.801-4.024-4.024-4.024h-31.505c-2.223 0-4.023 1.801-4.023 4.024 0 2.222 1.8 4.023 4.023 4.023" fill="#524e64"/></g><g transform="translate(172.5 45.731)"><path d="m0 0-16.823-8.18 4.719-25.266h-3.607l-10.147 26.047c-0.323 1.39 0.281 2.831 1.498 3.577l12.38 11.288z" fill="#37354c"/></g><g transform="translate(155.12 43.983)"><path d="m0 0-15.625-2.065 6.896-27.538h-3.605l-12.326 28.319c-0.322 1.39 0.281 2.831 1.498 3.577l25.606 9.516z" fill="#37354c"/></g><g transform="translate(160.4 12.285)"><path d="m0 0 0.496-4.602s1.609-5.129-0.227-5.315c-1.838-0.187-7.108-0.478-6.063 1.01 1.046 1.488 1.853 5.669 1.853 5.669l0.729 3.592z" fill="#37354c"/></g><g transform="translate(145.74 14.381)"><path d="m0 0 0.442-5.222s-7.312-2.283-9.149-2.469-1.999 0.645-0.954 2.132c1.045 1.489 6.567 3.537 6.567 3.537l0.98 2.022z" fill="#37354c"/></g><g transform="translate(179.51 58.884)"><path d="m0 0v-9.799c0-3.514-11.119-5.792-14.633-5.792l-12.804 1.829 2.134 13.719 7.011 2.967z" fill="#37354c"/></g><g transform="translate(155.57 108.55)"><path d="m0 0c0.531-1.138 1.32-2.131 2.102-3.112 0.15-0.189 0.312-0.386 0.539-0.468 0.478-0.172 0.957 0.238 1.286 0.626 1.767 2.083 3.025 4.595 3.636 7.257 0.135 0.586 0.146 1.367-0.408 1.602-0.187 0.079-0.399 0.07-0.602 0.056-1.939-0.136-4.676-0.447-6.329-1.568-1.402-0.952-0.834-3.087-0.224-4.393" fill="#37354c"/></g><g transform="translate(121.35 98.11)"><path d="m0 0s15.276-8.854 17.135-11.951l1.444-1.549 18.066 7.36 4.955-3.509-23.846-13.554-19.303 20.21z" fill="#9092ec"/></g><g transform="translate(151.16 57.926)"><path d="m0 0 3.603 28.994c0.643 3.644 3.959 6.554 7.623 6.689l11.459 0.494c3.695 0.136 5.674-2.35 5.579-6.009l-2.037-12.226v-19.922z" fill="#9092ec"/></g><g transform="translate(158.2 106.26)"><path d="m0 0c-0.834-0.072-1.488-0.771-1.488-1.624s0.654-1.552 1.488-1.624z" fill="#ef8e9e"/></g><g transform="translate(165.26 90.465)"><path d="m0 0c-1.511-0.011-2.744 1.204-2.756 2.715l-0.063 8.312c-1e-3 0.202 0.162 0.369 0.364 0.37l4.735 0.036c0.203 2e-3 0.368-0.162 0.37-0.365l0.064-8.312c0.011-1.511-1.204-2.744-2.714-2.756" fill="#a0616b"/></g><g transform="translate(156.23 106.05)"><path d="m0 0v0.914c0 4.809 3.934 8.743 8.742 8.743 4.809 0 8.742-3.934 8.742-8.743v-3.583c0-0.24-0.028-0.475-0.078-0.7-0.57-4.355-4.292-7.716-8.802-7.716-4.905 0-8.88 3.976-8.88 8.88 0 0.762 0.095 1.5 0.276 2.205" fill="#a0616b"/></g><g transform="translate(161.87 107.31)"><path d="m0 0c0-0.371 0.301-0.672 0.673-0.672 0.371 0 0.672 0.301 0.672 0.672 0 0.372-0.301 0.673-0.672 0.673-0.372 0-0.673-0.301-0.673-0.673" fill="#35324c"/></g><g transform="translate(157.02 107.31)"><path d="m0 0c0-0.371 0.301-0.672 0.673-0.672 0.371 0 0.672 0.301 0.672 0.672 0 0.372-0.301 0.673-0.672 0.673-0.372 0-0.673-0.301-0.673-0.673" fill="#35324c"/></g><g transform="translate(162.12 94.242)"><path d="m0 0 1.445-1.962 4.852 2.478 0.413-2.58-2.787-3.201-2.272 2.374-2.477-2.168z" fill="#fff"/></g><g transform="translate(160.82 66.656)"><path d="m0 0s3.254-0.776 3.308-0.582c0.052 0.194 0.321 5.991 0.321 5.991l-4.027-0.666z" fill="#fff"/></g><g transform="translate(159.05 66.752)"><path d="m0 0c-1.262 0.027-2.127 1.074-1.932 2.34 0.195 1.265 1.376 2.269 2.638 2.242s2.126-1.075 1.932-2.341c-0.196-1.264-1.376-2.268-2.638-2.241" fill="#a0616b"/></g><g transform="translate(173.84 94.102)"><path d="m0 0 3.266-0.115c2.297-0.08 4.209-1.4 4.999-3.451l8.288-17.759c1.278-2.739-1.157-6.222-4.35-6.222h-21.86l0.07 3.413 16.053 3.412z" fill="#9092ec"/></g><g transform="translate(162.12 91.661)"><path d="m0 0s-0.206-16.413-0.206-16.104c0 0.31 4.232 15.485 4.232 15.485l-0.103 1.032-3.2-0.619z" fill="#fff"/></g><g transform="translate(121.14 93.258)"><path d="m0 0 2.787 3.923-3.304 1.755-1.985-3.569z" fill="#fff"/></g><g transform="translate(121.32 98.05)"><path d="m0 0c0-1.48-1.2-2.682-2.682-2.682-1.48 0-2.681 1.202-2.681 2.682 0 1.481 1.201 2.682 2.681 2.682 1.482 0 2.682-1.201 2.682-2.682" fill="#a0616b"/></g><g transform="translate(155.15 111.64)"><path d="m0 0c2.755 1.963 6.663 2.152 9.595 0.465 0.886-0.51 1.695-1.179 2.661-1.517 0.967-0.338 2.19-0.248 2.818 0.561-0.635-1.525-1.328-3.155-1.962-4.679 0.164-0.767 0.175-1.646 0.339-2.413 0.384 0 0.756-2e-3 1.14-2e-3 0.217 0.61 0.264 1.403 0.482 2.014 0.961 0.515 2.012 0.675 3.031 0.283 0.25-0.097 0.561-0.212 0.764-0.035 0.069 0.058 0.11 0.14 0.147 0.222 0.426 0.944 0.448 2.063 0.055 3.021-0.391 0.958-1.191 1.742-2.157 2.115 0.461 1.432-0.993 2.923-2.305 3.657-2.434 1.364-5.383 1.563-8.135 1.103-2.752-0.459-5.359-1.529-7.939-2.592 0.108-0.889 0.675-1.784 1.466-2.203" fill="#37354c"/></g><g transform="translate(169.44 104.44)"><path d="m0 0c0-1.471 1.191-2.662 2.662-2.662 1.47 0 2.662 1.191 2.662 2.662 0 1.47-1.192 2.662-2.662 2.662-1.471 0-2.662-1.192-2.662-2.662" fill="#a0616b"/></g><g transform="translate(172.17 106.18)"><path d="m0 0c0.897-0.078 1.602-0.83 1.602-1.748s-0.705-1.671-1.602-1.749z" fill="#ef8e9e"/></g><g transform="translate(163.77 91.351)"><path d="m0 0-1.335-1.184 0.319-1.214-0.766-2.685-0.075-10.711s3.142 10.583 3.014 10.775-1.469 2.684-1.469 2.684l1.214 1.151z" fill="#37354c"/></g><g transform="translate(242.42 12.598)"><path d="m0 0c-9e-3 0-0.017-2e-3 -0.024-2e-3 -0.395 1.801-2.001 3.155-3.919 3.155h-5.203v8.928h-0.792v19.148h-0.525v0.16h-0.776v-0.16h-1.237v-19.148h-0.634v-8.928h-4.649c-1.924 0-3.535-1.361-3.923-3.171-0.902-0.09-1.609-0.842-1.609-1.768 0-0.986 0.801-1.787 1.787-1.787s1.786 0.801 1.786 1.787c0 0.859-0.607 1.576-1.416 1.747 0.371 1.521 1.741 2.655 3.375 2.655h6.282v-2.643c-0.857-0.13-1.517-0.865-1.517-1.759 0-0.986 0.8-1.787 1.787-1.787 0.986 0 1.786 0.801 1.786 1.787 0 0.894-0.659 1.629-1.517 1.76v2.642h6.995c1.654 0 3.039-1.162 3.388-2.713-0.714-0.234-1.232-0.897-1.232-1.689 0-0.986 0.8-1.787 1.787-1.787 0.986 0 1.786 0.801 1.786 1.787s-0.8 1.786-1.786 1.786" fill="#524e64"/></g><g transform="translate(238.22 82.607)"><path d="m0 0h-9.567c-4.492 0-8.132-3.641-8.132-8.132v-20.527c0-4.491 3.64-8.132 8.132-8.132h9.567c4.491 0 8.132 3.641 8.132 8.132v20.527c0 4.491-3.641 8.132-8.132 8.132" fill="#524e64"/></g><g transform="translate(208.59 47.586)"><path d="m0 0h31.505c2.223 0 4.024-1.801 4.024-4.023 0-2.223-1.801-4.024-4.024-4.024h-31.505c-2.223 0-4.023 1.801-4.023 4.024 0 2.222 1.8 4.023 4.023 4.023" fill="#524e64"/></g><g transform="translate(215.7 43.983)"><path d="m0 0-15.625-2.065 6.896-27.538h-3.605l-12.326 28.319c-0.322 1.39 0.281 2.831 1.498 3.577l25.606 9.516z" fill="#928fc9"/></g><g transform="translate(220.98 12.285)"><path d="m0 0 0.496-4.602s1.609-5.129-0.227-5.315c-1.838-0.187-7.108-0.478-6.063 1.01 1.046 1.488 1.853 5.669 1.853 5.669l0.729 3.592z" fill="#37354c"/></g><g transform="translate(233.08 45.731)"><path d="m0 0-16.823-8.18 4.719-25.266h-3.607l-10.147 26.047c-0.323 1.39 0.281 2.831 1.498 3.577l12.38 11.288z" fill="#b2aed6"/></g><g transform="translate(206.32 14.381)"><path d="m0 0 0.443-5.222s-7.312-2.283-9.149-2.469-1.999 0.645-0.954 2.132c1.045 1.489 6.567 3.537 6.567 3.537l0.98 2.022z" fill="#37354c"/></g><g transform="translate(240.09 58.884)"><path d="m0 0v-9.799c0-3.514-11.119-5.792-14.633-5.792l-8.933 1.268-1.737 14.28 7.011 2.967z" fill="#b2aed6"/></g><g transform="translate(211.74 57.926)"><path d="m0 0 3.603 28.994c0.643 3.644 3.959 6.554 7.623 6.689l11.459 0.494c3.695 0.136 5.674-2.35 5.579-6.009l-2.037-12.226v-19.922z" fill="#717bff"/></g><g transform="translate(218.78 106.26)"><path d="m0 0c-0.834-0.072-1.488-0.771-1.488-1.624s0.654-1.552 1.488-1.624z" fill="#ef8e9e"/></g><g transform="translate(225.84 90.465)"><path d="m0 0c-1.51-0.011-2.743 1.204-2.755 2.715l-0.063 8.312c-1e-3 0.202 0.162 0.369 0.364 0.37l4.735 0.036c0.203 2e-3 0.368-0.162 0.37-0.365l0.063-8.312c0.012-1.511-1.203-2.744-2.714-2.756" fill="#ffbcc6"/></g><g transform="translate(216.81 106.05)"><path d="m0 0v0.914c0 4.809 3.934 8.743 8.742 8.743 4.809 0 8.742-3.934 8.742-8.743v-3.583c0-0.24-0.028-0.475-0.078-0.7-0.57-4.355-4.292-7.716-8.802-7.716-4.905 0-8.88 3.976-8.88 8.88 0 0.762 0.095 1.5 0.276 2.205" fill="#ffbcc6"/></g><g transform="translate(223.28 107.33)"><path d="m0 0c0-0.371 0.301-0.672 0.672-0.672 0.372 0 0.673 0.301 0.673 0.672s-0.301 0.673-0.673 0.673c-0.371 0-0.672-0.302-0.672-0.673" fill="#35324c"/></g><g transform="translate(216.89 107.33)"><path d="m0 0c0-0.371 0.302-0.672 0.673-0.672s0.672 0.301 0.672 0.672-0.301 0.673-0.672 0.673-0.673-0.302-0.673-0.673" fill="#35324c"/></g><g transform="translate(222.7 94.242)"><path d="m0 0 1.445-1.962 4.852 2.478 0.413-2.58-2.787-3.201-2.272 2.374-2.477-2.168z" fill="#fff"/></g><g transform="translate(234.42 94.102)"><path d="m0 0 3.266-0.115c2.297-0.08 4.209-1.4 4.999-3.451l8.288-17.759c1.278-2.739-1.157-6.222-4.35-6.222h-21.86l0.07 3.413 16.053 3.412z" fill="#717bff"/></g><g transform="translate(222.63 93.503)"><path d="m0 0-5.38-0.562c-2.298-0.082-4.92-2.458-5.711-4.508l-11.522-15.656c-1.279-2.739 1.156-6.221 4.349-6.221h21.861l-0.071 3.413-16.052 3.412z" fill="#717bff"/></g><g transform="translate(221.18 67.683)"><path d="m0 0s-2.979-1.52-3.077-1.344c-0.098 0.177-1.722 5.748-1.722 5.748l4.071 0.3z" fill="#fff"/></g><g transform="translate(219.21 70.589)"><path d="m0 0c0.324-1.339 1.672-2.162 3.011-1.838 1.34 0.324 2.162 1.672 1.839 3.012-0.325 1.339-1.672 2.161-3.012 1.838-1.339-0.324-2.162-1.672-1.838-3.012" fill="#d98e9d"/></g><g transform="translate(222.7 91.661)"><path d="m0 0s-0.206-16.413-0.206-16.104c0 0.31 4.231 15.485 4.231 15.485l-0.102 1.032-3.2-0.619z" fill="#fff"/></g><g transform="translate(221.4 66.656)"><path d="m0 0s3.254-0.776 3.308-0.582c0.052 0.194 0.321 5.991 0.321 5.991l-4.027-0.666z" fill="#fff"/></g><g transform="translate(222.63 69.943)"><path d="m0 0c0-1.378-1.117-2.494-2.494-2.494-1.378 0-2.495 1.116-2.495 2.494s1.117 2.495 2.495 2.495c1.377 0 2.494-1.117 2.494-2.495" fill="#ffbcc6"/></g><g transform="translate(219.85 107.54)"><path d="m0 0c0-1.664-1.04-3.013-2.323-3.013-1.282 0-2.323 1.349-2.323 3.013 0 1.663 1.041 3.012 2.323 3.012 1.283 0 2.323-1.349 2.323-3.012z" fill="none" stroke="#37354c" stroke-miterlimit="10" stroke-width=".5"/></g><g transform="translate(227.22 107.54)"><path d="m0 0c0-1.8-1.466-3.258-3.273-3.258-1.809 0-3.275 1.458-3.275 3.258 0 1.799 1.466 3.257 3.275 3.257 1.807 0 3.273-1.458 3.273-3.257z" fill="none" stroke="#37354c" stroke-miterlimit="10" stroke-width=".5"/></g><g transform="translate(227.22 107.54)"><path d="m0 0c0.429-0.515 6.927-2.098 6.927-2.098" fill="none" stroke="#37354c" stroke-miterlimit="10" stroke-width=".5"/></g><g transform="translate(225.56 115.71)"><path d="m0 0c-1.888 0-3.637-0.613-5.069-1.642 3.108-0.857 6.336-1.287 9.559-1.217-0.236-1.532 0.3-3.404 1.174-4.683 0.839-1.229 1.959-2.233 3.078-3.218v2.017c0 4.808-3.933 8.743-8.742 8.743" fill="#37354c"/></g><g transform="translate(231.26 104.66)"><path d="m0 0c0-1.47 1.192-2.662 2.662-2.662 1.471 0 2.662 1.192 2.662 2.662s-1.191 2.662-2.662 2.662c-1.47 0-2.662-1.192-2.662-2.662" fill="#ffbcc6"/></g><g transform="translate(233.99 106.41)"><path d="m0 0c0.897-0.079 1.603-0.831 1.603-1.749s-0.706-1.67-1.603-1.749z" fill="#ef8e9e"/></g><g transform="translate(224.35 91.351)"><path d="m0 0-1.335-1.184 0.319-1.214-0.766-2.685-0.075-10.711s3.142 10.583 3.014 10.775-1.469 2.684-1.469 2.684l1.214 1.151z" fill="#37354c"/></g><path d="m249.21 49.129h-130.16v16.449h130.16z" fill="#babed8"/><path d="m120.95 7.742h-1.747v57.706h1.747z" fill="#4d4e64"/><path d="m250.38 7.742h-1.747v57.706h1.747z" fill="#4d4e64"/></g><g clip-path="url(#h)"><g mask="url(#a)"><path d="m118.93 65.471 131.45-9.606v9.606z" fill="url(#c)"/></g></g><g clip-path="url(#g)"><path d="m254.23 64.4h-139.22v2.796h139.22z" fill="#d9e4ed"/><g transform="translate(97.73 112.92)"><path d="m0 0-0.635 0.441 4.796 6.913 2.495-2.625 5.504 9.796 3.088-4.431 8.099 12.217 3.618-4.555 6.887 9.056 0.616-0.469-7.491-9.847-3.573 4.5-8.141-12.277-3.034 4.353-5.413-9.636-2.561 2.697z" fill="#444bcc"/></g><g transform="translate(141.59 110.23)"><path d="m0 0h-44.582v0.773h43.809v36.22h0.773z" fill="#37354c"/></g><g transform="translate(101.11 113.85)"><path d="m0 0-0.27 0.098h-0.489c0 0.139 0 0.507 10.705 18.172l0.34 0.56 8.12-14.146 7.985 28.555 8.22-30.511-0.746-0.203-7.489 27.793-7.722-27.619-8.386 14.608c-4.125-6.812-10.033-16.66-10.268-17.307" fill="#d98e9d"/></g></g></g></svg>