<?xml version="1.0" encoding="UTF-8"?>
<svg version="1.1" viewBox="0 0 152.28 152.28" xml:space="preserve" xmlns="http://www.w3.org/2000/svg" xmlns:cc="http://creativecommons.org/ns#" xmlns:dc="http://purl.org/dc/elements/1.1/" xmlns:rdf="http://www.w3.org/1999/02/22-rdf-syntax-ns#"><metadata><rdf:RDF><cc:Work rdf:about=""><dc:format>image/svg+xml</dc:format><dc:type rdf:resource="http://purl.org/dc/dcmitype/StillImage"/></cc:Work></rdf:RDF></metadata><defs><clipPath id="a"><path d="M 0,114.213 H 114.213 V 0 H 0 Z"/></clipPath></defs><g transform="matrix(1.3333 0 0 -1.3333 0 152.28)"><g clip-path="url(#a)"><g transform="translate(114.21 57.107)"><path d="m0 0c0-31.539-25.567-57.107-57.106-57.107-31.54 0-57.107 25.568-57.107 57.107 0 31.538 25.567 57.106 57.107 57.106 31.539 0 57.106-25.568 57.106-57.106" fill="#4b5d8c"/></g><g transform="translate(90.192 79.34)"><path d="m0 0c-2.461-1.092-4.375-1.521-7.151-1.852 2.834 1.7 5.009 4.387 6.037 7.594-2.653-1.574-5.591-2.715-8.717-3.33-2.504 2.667-6.071 4.334-10.022 4.334-7.579 0-13.726-6.146-13.726-13.726 0-1.077 0.121-2.124 0.357-3.129-11.408 0.572-21.522 6.037-28.293 14.343-1.181-2.027-1.859-4.386-1.859-6.902 0-4.76 2.425-8.963 6.106-11.426-2.249 0.073-4.367 0.69-6.216 1.719-2e-3 -0.057-2e-3 -0.117-2e-3 -0.174 0-6.65 4.734-12.197 11.012-13.457-1.151-0.316-2.365-0.484-3.616-0.484-0.887 0-1.745 0.086-2.583 0.246 1.747-5.451 6.815-9.42 12.822-9.531-4.698-3.684-10.616-5.877-17.048-5.877-1.107 0-2.202 0.064-3.273 0.191 0 0 5.059-6.994 22.733-9.443 17.672-2.45 48.087 9.484 37.323 44.107 2.683 1.936 4.276 4.043 6.116 6.797" fill="#fff"/></g></g></g></svg>